<?xml version="1.0" encoding="UTF-8"?>
<svg id="Calque_2" data-name="Calque 2" xmlns="http://www.w3.org/2000/svg" viewBox="0 0 407.5607 407.5607">
  <defs>
    <style>
      .cls-1 {
        fill: #7603a9;
      }

      .cls-2 {
        fill: #fea851;
      }
    </style>
  </defs>
  <g id="Calque_1-2" data-name="Calque 1">
    <rect class="cls-2" width="407.5607" height="407.5607" rx="62.1263" ry="62.1263"/>
    <g>
      <path class="cls-1" d="M290.2526,111.8143h-100.7235s-33.2848-3.7934-41.8402,33.7046c-6.196,27.1568-20.8315,79.1238-31.3064,115.5329-5.7927,20.1345,9.3191,40.2057,30.2703,40.2057h75.4187s23.2446,2.3245,32.5424-24.4068,17.0932-62.7088,17.0932-62.7088l21.2603-.0516-3.0552,11.4569c-.8061,3.0228,1.4632,5.9915,4.5916,6.0069l26.9042.1319c2.1936.0108,4.1125-1.4741,4.6526-3.6001l15.0972-59.425c.7773-3.0597-1.5746-6.0184-4.7308-5.9512l-25.3145.5386c-2.0995.0447-3.9235,1.4554-4.4946,3.4762l-3.8965,13.7876-102.9837-.3563c-2.9429-.0102-5.5161,1.9814-6.2441,4.8329l-5.7002,22.3257c-1.0319,4.0415,2.003,7.9788,6.174,8.0099l41.8678.3124-11.9233,41.8845c-1.5646,5.496-6.6127,9.2659-12.3267,9.2054l-49.3497-.5222c-5.8621-.062-10.08-5.653-8.5301-11.3068l25.8651-94.3488c2.3336-8.5125,10.0707-14.4139,18.8972-14.4139h86.6685c3.0844,0,5.7695-2.1078,6.5018-5.1041l5.1165-20.9342c1.0304-4.2157-2.162-8.2822-6.5018-8.2822Z"/>
      <path class="cls-1" d="M80.7637,180.5121l3.3599-11.8889c.8899-3.149,3.7322-5.3473,7.0038-5.4169l19.838-.4221c4.9181-.1046,8.5831,4.5058,7.3718,9.2735l-13.721,54.0082c-.8417,3.313-3.8318,5.6267-7.2499,5.6099l-21.3671-.1047c-4.8749-.0239-8.4109-4.6499-7.1548-9.3602l2.1655-8.1205,9.754-33.5784Z"/>
    </g>
  </g>
</svg>